<svg
        xmlns="http://www.w3.org/2000/svg"
        xmlns:xlink="http://www.w3.org/1999/xlink"
        viewBox="0 0 33 28" preserveAspectRatio="xMidYMid meet">
    <path fill-rule="evenodd"  fill="#919191"
          d="M0.308,13.119 L27.494,13.119 L17.714,3.234 C17.201,2.717 17.201,1.877 17.714,1.359 C18.227,0.840 19.058,0.840 19.571,1.359 L31.488,13.403 C31.537,13.439 31.595,13.459 31.640,13.506 C31.886,13.753 31.999,14.078 32.008,14.405 C32.009,14.427 32.021,14.446 32.021,14.469 C32.021,14.492 32.009,14.511 32.008,14.534 C31.999,14.861 31.886,15.185 31.640,15.434 C31.595,15.478 31.537,15.498 31.488,15.537 L19.571,27.580 C19.058,28.097 18.227,28.097 17.714,27.580 C17.201,27.062 17.201,26.221 17.714,25.703 L27.494,15.819 L0.308,15.819 L0.308,13.119 Z"/>
</svg>